<?xml version="1.0" standalone="no"?>
<!DOCTYPE svg PUBLIC "-//W3C//DTD SVG 20010904//EN"
 "http://www.w3.org/TR/2001/REC-SVG-20010904/DTD/svg10.dtd">
<svg version="1.0" xmlns="http://www.w3.org/2000/svg"
 width="365.000000pt" height="300.000000pt" viewBox="0 0 365.000000 300.000000"
 preserveAspectRatio="xMidYMid meet">

<g transform="translate(0.000000,300.000000) scale(0.100000,-0.100000)"
fill="#000000" stroke="none">
<path d="M1530 2385 l0 -425 125 0 125 0 0 425 0 425 -125 0 -125 0 0 -425z"/>
<path d="M1880 2720 l0 -90 120 0 120 0 0 90 0 90 -120 0 -120 0 0 -90z"/>
<path d="M1065 2527 c-248 -82 -278 -421 -47 -534 55 -27 64 -28 235 -31 l177
-4 0 91 0 90 -86 3 -86 3 82 98 83 98 -18 40 c-22 48 -90 112 -142 134 -52 22
-149 28 -198 12z m124 -176 c11 -7 4 -22 -36 -73 -28 -34 -60 -71 -72 -82 -20
-18 -21 -18 -31 8 -14 37 -13 62 5 96 25 48 96 75 134 51z"/>
<path d="M1880 2235 l0 -275 120 0 120 0 0 275 0 275 -120 0 -120 0 0 -275z"/>
<path d="M2263 2495 c-30 -21 -46 -75 -33 -109 5 -14 48 -72 95 -128 47 -56
85 -105 85 -110 0 -4 -40 -8 -90 -8 l-90 0 0 -90 0 -90 189 0 c188 0 190 0
219 25 34 29 47 70 33 106 -5 14 -48 70 -95 126 -47 56 -86 104 -86 107 0 3
39 7 88 8 l87 3 0 87 0 88 -190 0 c-153 0 -195 -3 -212 -15z"/>
<path d="M1110 1488 c0 -178 5 -352 11 -388 11 -70 67 -250 78 -250 3 1 132
156 285 345 154 190 282 345 285 345 3 -1 132 -156 286 -345 153 -190 282
-342 286 -337 17 16 68 192 79 267 7 49 10 196 8 380 l-3 300 -657 3 -658 2 0
-322z"/>
<path d="M1543 947 c-120 -144 -224 -269 -230 -278 -11 -14 -5 -27 39 -85 74
-99 234 -253 333 -320 l85 -58 72 50 c132 90 395 362 386 400 -4 16 -450 554
-459 554 -4 0 -105 -118 -226 -263z"/>
</g>
</svg>
